<?xml version="1.0" encoding="utf-8"?>
<!-- Generator: Adobe Illustrator 16.0.0, SVG Export Plug-In . SVG Version: 6.00 Build 0)  -->
<!DOCTYPE svg PUBLIC "-//W3C//DTD SVG 1.1//EN" "http://www.w3.org/Graphics/SVG/1.1/DTD/svg11.dtd">
<svg version="1.1" id="Layer_1" xmlns="http://www.w3.org/2000/svg" xmlns:xlink="http://www.w3.org/1999/xlink" x="0px" y="0px"
	 width="957.6459961px" height="84.7060547px" viewBox="0 0 957.6459961 84.7060547"
	 enable-background="new 0 0 957.6459961 84.7060547" xml:space="preserve">
<g>
	<path fill="#E6E7E8" d="M162.7207031,77.4433594H145.84375c-1.6777344-4.7373047-2.6645508-8.7841797-3.2568359-14.5078125
		c-0.8881836-7.4023438-3.7504883-11.7446289-8.8823242-12.1396484c-1.875-0.0986328-3.5532227-0.0986328-5.4282227-0.0986328
		h-6.1191406v26.7460938h-15.4946289V9.3447266h25.8574219c4.046875,0,6.7114258,0.0986328,10.2641602,0.4931641
		c9.8696289,1.1845703,18.0610352,6.1191406,18.0610352,18.0610352c0,8.6850586-4.9345703,14.3105469-13.5209961,16.777832
		c6.9086914,2.5664063,9.5732422,7.9946289,10.362793,15.8896484
		C158.5751953,68.5605469,159.9570313,73.4960938,162.7207031,77.4433594z M130.1513672,39.3476563
		c2.1713867,0,3.8491211,0,5.230957-0.0986328c5.0332031-0.4936523,9.2773438-2.6650391,9.2773438-8.8828125
		s-3.6518555-8.1914063-8.6850586-8.7836914c-1.3818359-0.0986328-3.0595703-0.1972656-5.230957-0.1972656h-8.5864258v17.9624023
		H130.1513672z"/>
	<path fill="#E6E7E8" d="M218.9711914,55.1386719h-36.9116211c0.8881836,10.0664063,5.230957,13.0273438,11.0537109,13.0273438
		c5.4282227,0,9.0795898-2.9609375,9.9682617-7.8955078h15.2973633
		c-2.8623047,12.1396484-12.7314453,18.5546875-25.5620117,18.5546875c-14.7050781,0-26.2524414-8.9814453-26.2524414-27.5356445
		c0-15.7910156,10.5605469-27.831543,27.2397461-27.831543c16.777832,0,25.4628906,12.7314453,25.4628906,26.7460938
		C219.2670898,51.5854492,219.168457,53.2636719,218.9711914,55.1386719z M182.4541016,45.3676758h20.7260742
		c-0.8886719-7.4018555-4.3427734-11.2509766-10.0668945-11.2509766
		C187.5864258,34.1166992,183.7373047,37.5712891,182.4541016,45.3676758z"/>
	<path fill="#E6E7E8" d="M246.4042969,57.2109375c0,1.7763672,0,3.5527344,0.0986328,4.9345703
		c0.3950195,5.2314453,2.1713867,6.4150391,10.0668945,5.921875v9.8691406
		c-3.1582031,0.4941406-6.2177734,0.7900391-9.5732422,0.7900391c-11.5473633,0-15.2978516-3.7509766-15.8896484-11.4482422
		c-0.1977539-2.6650391-0.1977539-5.0341797-0.1977539-7.9951172V35.1035156h-7.9941406V25.234375h7.9941406V12.0092773h15.4951172
		V25.234375h11.1523438v9.8691406h-11.1523438V57.2109375z"/>
	<path fill="#E6E7E8" d="M294.7612305,69.7451172l-2.3686523,5.6259766
		c-3.7504883,2.3681641-8.1918945,3.4541016-13.027832,3.4541016c-8.8823242,0-16.8764648-5.4287109-16.8764648-15.3964844
		c0-11.4482422,10.1655273-18.159668,28.7197266-18.159668h3.355957v-0.8881836c0-1.3818359,0-2.7631836-0.1977539-4.5400391
		c-0.2958984-3.1582031-2.6645508-5.7241211-7.3032227-5.7241211c-4.8359375,0-7.5004883,2.9609375-7.8955078,8.1918945h-14.8041992
		c0.2963867-12.0410156,10.4619141-18.8505859,23.2919922-18.8505859c15.59375,0,21.2192383,6.8095703,22.0087891,16.1855469
		c0.1972656,2.4672852,0.2958984,5.4282227,0.2958984,8.487793v15.9887695c0,3.9472656,0.1972656,7.5,0.9868164,13.3232422
		h-15.1000977L294.7612305,69.7451172z M294.5639648,58.296875v-3.8496094
		c-9.5732422-0.7890625-16.1860352,1.5791016-16.1860352,7.6982422c0,3.9482422,2.8623047,6.0205078,7.105957,6.0205078
		C290.1225586,68.1660156,294.5639648,64.8105469,294.5639648,58.296875z"/>
	<path fill="#E6E7E8" d="M337.6894531,12.3056641c0,4.8359375-3.355957,7.8955078-8.2905273,7.8955078
		s-8.1914063-3.0595703-8.1914063-7.8955078c0-4.7373047,3.2568359-7.796875,8.1914063-7.796875
		S337.6894531,7.5683594,337.6894531,12.3056641z M321.7006836,77.4433594V24.8393555h15.4951172v52.6040039H321.7006836z"/>
	<path fill="#E6E7E8" d="M400.159668,47.7363281v29.7070313h-15.4946289V50.1049805c0-1.9736328,0-4.6381836-0.1977539-7.3032227
		c-0.3945313-5.3295898-3.3554688-8.6850586-9.3759766-8.6850586c-6.1186523,0-10.6586914,5.5268555-10.6586914,18.949707
		v24.3769531H348.9375V24.8393555h15.4951172v8.2905273l4.3422852-6.3164063
		c3.5532227-2.3686523,7.3037109-3.3554688,12.2382813-3.3554688c11.0537109,0,17.46875,5.3291016,18.6533203,14.5078125
		C400.0610352,40.6303711,400.159668,43.4926758,400.159668,47.7363281z"/>
	<path fill="#E6E7E8" d="M460.3588867,55.1386719h-36.9116211c0.8881836,10.0664063,5.230957,13.0273438,11.0537109,13.0273438
		c5.4282227,0,9.0795898-2.9609375,9.9682617-7.8955078h15.2973633
		c-2.8623047,12.1396484-12.7314453,18.5546875-25.5620117,18.5546875c-14.7050781,0-26.2524414-8.9814453-26.2524414-27.5356445
		c0-15.7910156,10.5605469-27.831543,27.2397461-27.831543c16.777832,0,25.4628906,12.7314453,25.4628906,26.7460938
		C460.6547852,51.5854492,460.5561523,53.2636719,460.3588867,55.1386719z M423.8417969,45.3676758h20.7260742
		c-0.8886719-7.4018555-4.3427734-11.2509766-10.0668945-11.2509766
		C428.9741211,34.1166992,425.125,37.5712891,423.8417969,45.3676758z"/>
	<path fill="#E6E7E8" d="M502.2016602,23.8525391v12.5341797c-12.237793-0.7895508-17.46875,4.1450195-17.46875,19.0478516
		v22.0087891H469.237793V24.8393555h15.4951172V34.90625l3.9477539-7.3032227
		c2.6645508-2.7636719,6.5136719-4.1450195,9.5737305-4.1450195
		C499.9321289,23.4580078,501.0170898,23.6552734,502.2016602,23.8525391z"/>
	<path fill="#E6E7E8" d="M578.0942383,77.4433594h-6.1191406V40.7294922c0-8.5864258,0-18.0610352,0.1972656-25.956543
		c-2.6650391,7.8955078-6.1191406,17.46875-9.2773438,25.8574219l-13.8173828,36.8129883h-7.6972656l-13.9160156-36.9116211
		c-3.0595703-8.2900391-6.5136719-17.8632813-9.0800781-25.6601563c0.1972656,7.8955078,0.1972656,17.3701172,0.1972656,25.8579102
		v36.7138672h-6.1191406V9.3447266h9.96875l22.9951172,62.9667969l22.8974609-62.9667969h9.7705078V77.4433594z"/>
	<path fill="#E6E7E8" d="M623.0932617,67.96875l-2.5664063,5.5273438
		c-3.6513672,3.6513672-8.7832031,5.3291016-14.5078125,5.3291016c-9.671875,0-16.5800781-5.0332031-16.5800781-14.5078125
		c0-11.9423828,11.3496094-17.7651367,30.2001953-17.7651367h3.3554688v-1.8754883c0-2.3681641,0-4.3422852-0.1972656-6.4150391
		c-0.4941406-6.0200195-4.1455078-9.4746094-11.6464844-9.4746094c-7.2041016,0-12.3369141,3.8491211-13.1259766,11.9423828
		h-6.4150391c0.6904297-10.2646484,8.4873047-16.8769531,19.5410156-16.8769531
		c11.5478516,0,16.9755859,5.230957,17.7646484,13.8173828c0.1982422,2.2695313,0.1982422,4.440918,0.1982422,6.9082031v18.2587891
		c0,4.6386719,0.2958984,8.3886719,0.9863281,14.6064453h-6.1191406L623.0932617,67.96875z M622.9946289,57.3095703v-6.0200195
		c-14.7060547-0.9868164-26.8447266,2.4672852-26.8447266,12.5336914c0,6.6132813,4.1445313,10.1660156,11.7441406,10.1660156
		C616.9741211,73.9892578,622.9946289,67.0800781,622.9946289,57.3095703z"/>
	<path fill="#E6E7E8" d="M650.9213867,13.9833984c0,2.2695313-1.7763672,4.1450195-4.1445313,4.1450195
		c-2.2705078,0-4.1455078-1.8754883-4.1455078-4.1450195c0-2.3686523,1.875-4.1455078,4.1455078-4.1455078
		C649.1450195,9.8378906,650.9213867,11.6147461,650.9213867,13.9833984z M643.7172852,77.4433594V25.234375h6.1181641v52.2089844
		H643.7172852z"/>
	<path fill="#E6E7E8" d="M706.5825195,48.2299805v29.2133789h-6.1191406V48.9208984c0-2.9609375,0-5.230957-0.1972656-7.8955078
		c-0.6904297-7.105957-4.6386719-12.1396484-13.421875-12.1396484c-8.6855469,0-16.2851563,6.3164063-16.2851563,22.6010742
		v25.956543h-6.1181641V25.234375h6.1181641v10.0668945l2.7636719-5.6254883
		c4.2441406-4.2441406,8.8828125-5.8232422,14.7060547-5.8232422c11.0527344,0,17.3691406,6.0205078,18.3564453,15.59375
		C706.5825195,42.1108398,706.5825195,43.9863281,706.5825195,48.2299805z"/>
	<path fill="#E6E7E8" d="M728.4887695,63.1328125c0,2.1708984,0,3.2568359,0.0986328,4.6386719
		c0.3945313,5.0332031,2.5654297,6.3164063,9.5732422,5.4277344v4.5400391
		c-2.0732422,0.3945313-4.2441406,0.4931641-6.3164063,0.4931641c-5.8232422,0-8.8828125-2.5654297-9.3759766-8.2900391
		c-0.0986328-1.7763672-0.0986328-3.75-0.0986328-6.7109375V30.3662109h-6.7119141v-4.7373047h6.7119141v-11.546875h6.1191406
		v11.546875h9.9677734v4.7373047h-9.9677734V63.1328125z"/>
	<path fill="#E6E7E8" d="M779.0170898,67.96875l-2.5664063,5.5273438
		c-3.6513672,3.6513672-8.7832031,5.3291016-14.5078125,5.3291016c-9.671875,0-16.5800781-5.0332031-16.5800781-14.5078125
		c0-11.9423828,11.3496094-17.7651367,30.2001953-17.7651367h3.3554688v-1.8754883c0-2.3681641,0-4.3422852-0.1972656-6.4150391
		c-0.4941406-6.0200195-4.1455078-9.4746094-11.6464844-9.4746094c-7.2041016,0-12.3369141,3.8491211-13.1259766,11.9423828
		h-6.4150391c0.6904297-10.2646484,8.4873047-16.8769531,19.5410156-16.8769531
		c11.5478516,0,16.9755859,5.230957,17.7646484,13.8173828c0.1982422,2.2695313,0.1982422,4.440918,0.1982422,6.9082031v18.2587891
		c0,4.6386719,0.2958984,8.3886719,0.9863281,14.6064453h-6.1191406L779.0170898,67.96875z M778.918457,57.3095703v-6.0200195
		c-14.7060547-0.9868164-26.8447266,2.4672852-26.8447266,12.5336914c0,6.6132813,4.1445313,10.1660156,11.7441406,10.1660156
		C772.8979492,73.9892578,778.918457,67.0800781,778.918457,57.3095703z"/>
	<path fill="#E6E7E8" d="M806.8461914,13.9833984c0,2.2695313-1.7763672,4.1450195-4.1455078,4.1450195
		c-2.2695313,0-4.1445313-1.8754883-4.1445313-4.1450195c0-2.3686523,1.875-4.1455078,4.1445313-4.1455078
		C805.0698242,9.8378906,806.8461914,11.6147461,806.8461914,13.9833984z M799.6420898,77.4433594V25.234375h6.1181641v52.2089844
		H799.6420898z"/>
	<path fill="#E6E7E8" d="M862.5063477,48.2299805v29.2133789h-6.1191406V48.9208984c0-2.9609375,0-5.230957-0.1972656-7.8955078
		c-0.6904297-7.105957-4.6386719-12.1396484-13.421875-12.1396484c-8.6855469,0-16.2851563,6.3164063-16.2851563,22.6010742
		v25.956543h-6.1181641V25.234375h6.1181641v10.0668945l2.7636719-5.6254883
		c4.2441406-4.2441406,8.8828125-5.8232422,14.7060547-5.8232422c11.0527344,0,17.3691406,6.0205078,18.3564453,15.59375
		C862.5063477,42.1108398,862.5063477,43.9863281,862.5063477,48.2299805z"/>
	<path fill="#E6E7E8" d="M918.4614258,53.1650391h-39.5761719c0.6904297,15.3955078,8.4873047,20.8242188,16.9755859,20.8242188
		c7.3027344,0,13.8173828-4.4414063,15.6923828-13.0273438h6.4150391
		c-2.4677734,12.1386719-12.0410156,17.8632813-22.5019531,17.8632813c-13.0283203,0-23.1933594-9.0800781-23.1933594-27.4370117
		c0-16.777832,10.4609375-27.5356445,24.1796875-27.5356445c14.6064453,0,22.2060547,11.6459961,22.2060547,26.0551758
		C918.6586914,50.5986328,918.6586914,51.5854492,918.4614258,53.1650391z M878.8852539,48.3286133h33.5556641
		c-0.6904297-13.4223633-7.4013672-19.5415039-16.1855469-19.5415039
		C887.6694336,28.7871094,879.7739258,35.3012695,878.8852539,48.3286133z"/>
	<path fill="#E6E7E8" d="M951.6176758,24.4448242v4.8359375c-9.0791016-0.690918-15.7910156,4.9345703-15.7910156,18.8505859
		v29.3120117h-6.1181641V25.234375h6.1181641v9.4746094l3.7509766-6.7114258
		c2.3681641-2.4672852,5.625-3.9477539,8.9804688-3.9477539C949.644043,24.0498047,950.7299805,24.1484375,951.6176758,24.4448242z"
		/>
</g>
<g>
	<path fill="#E6E7E8" d="M7.8505859,77.2597656h88.8237305c0,0-2.3164063-48.8208008-33.8769531-48.8208008
		c0,0-4.3745117-5.7641602-5.8823242-7.6469727c9.5556641-20.7919922-17.6469727-20.5883789-8.2353516,0
		c0,0-3.9663086,7.6469727-6.4707031,7.6469727C11.1757813,28.4389648,7.8505859,77.2597656,7.8505859,77.2597656z"/>
	<g id="Layer_2">
		<g>
			<path fill="#F6C847" d="M73.4003906,47.3115234c-0.8432617-5.2294922-3.7338867-10.0449219-8.2729492-12.8623047
				c-3.1303711-1.9423828-6.7729492-2.7929688-10.4331055-2.8144531c-11.3535156,0-20.5571289,9.2041016-20.5571289,20.5576172
				c0,11.3505859,9.2036133,20.5556641,20.5571289,20.5556641c0.2587891-0.0019531,1.0268555,0.0175781,1.284668,0
				c-3.0019531-0.890625-5.6137695-3.8105469-5.652832-6.9375c0-3.8320313,3.105957-6.9394531,6.9379883-6.9394531
				c3.831543,0,6.9379883,3.1074219,6.9379883,6.9394531c0.0117188,1.2285156-0.3374023,2.3808594-0.9199219,3.453125
				c2.1503906-2.2070313,3.456543-5.1542969,3.4355469-8.2578125c0-6.5273438-5.4067383-11.8193359-12.0771484-11.8193359
				c-5.168457,0.0332031-9.8286133,3.2324219-11.4892578,8.1650391c-0.0610352-0.5839844-0.2675781-2.0058594-0.2773438-2.5908203
				c0-9.2480469,7.4418945-15.9082031,16.4003906-15.9082031c5.9208984-0.0185547,11.1113281,3.3251953,14.0195313,8.3935547"/>
			<path fill="#F6C847" fill-opacity="0" d="M73.4003906,47.3115234
				c-0.8432617-5.2294922-3.7338867-10.0449219-8.2729492-12.8623047
				c-3.1303711-1.9423828-6.7729492-2.7929688-10.4331055-2.8144531c-11.3535156,0-20.5571289,9.2041016-20.5571289,20.5576172
				c0,11.3505859,9.2036133,20.5556641,20.5571289,20.5556641c0.2587891-0.0019531,1.0268555,0.0175781,1.284668,0
				c-3.0019531-0.890625-5.6137695-3.8105469-5.652832-6.9375c0-3.8320313,3.105957-6.9394531,6.9379883-6.9394531
				c3.831543,0,6.9379883,3.1074219,6.9379883,6.9394531c0.0117188,1.2285156-0.3374023,2.3808594-0.9199219,3.453125
				c2.1503906-2.2070313,3.456543-5.1542969,3.4355469-8.2578125c0-6.5273438-5.4067383-11.8193359-12.0771484-11.8193359
				c-5.168457,0.0332031-9.8286133,3.2324219-11.4892578,8.1650391c-0.0610352-0.5839844-0.2675781-2.0058594-0.2773438-2.5908203
				c0-9.2480469,7.4418945-15.9082031,16.4003906-15.9082031c5.9208984-0.0185547,11.1113281,3.3251953,14.0195313,8.3935547"/>
		</g>
	</g>
</g>
<g>
</g>
<g>
</g>
<g>
</g>
<g>
</g>
<g>
</g>
<g>
</g>
</svg>
